<svg id="Layer_1" data-name="Layer 1" xmlns="http://www.w3.org/2000/svg" viewBox="0 0 69.18 35.04"><polygon points="31.43 16.53 32.43 16.53 32.43 1.24 38.13 1.24 38.13 0.38 25.76 0.38 25.76 1.24 31.43 1.24 31.43 16.53"/><polygon points="1.7 8.57 12.01 8.57 12.01 16.53 13 16.53 13 0.38 12.01 0.38 12.01 7.71 1.7 7.71 1.7 0.38 0.7 0.38 0.7 16.53 1.7 16.53 1.7 8.57"/><line x1="14.02" y1="30.65" x2="14.52" y2="27.1"/><path d="M43.65,28.48H36.94v.46h6.17v.83A6.13,6.13,0,0,1,36.78,36c-4.77,0-7.19-3.6-7.19-8s2.6-8,7.12-8a5.93,5.93,0,0,1,6.24,5h.46c-.55-3.3-3.06-5.43-6.7-5.43-4.75,0-7.57,3.74-7.57,8.46s2.6,8.46,7.57,8.46c3.17,0,5.74-1.67,6.57-4.39A10,10,0,0,0,43.65,28.48Z" transform="translate(-29.14 -1.38)"/><rect x="39.24" y="0.38" width="1" height="0.89"/><path d="M78.66,18.3c4.07,0,6.56-2.81,7.1-6.72h-.45c-.47,3.57-2.78,6.27-6.65,6.27-4.36,0-6.85-3.78-6.85-7.87,0-3.35,1.83-8.15,7.15-8.15,3.5,0,5.81,2.45,6,4.78h.45c-.07-2-2.17-5.23-6.44-5.23-5.5,0-7.6,4.68-7.6,8.6C71.36,14.79,74.37,18.3,78.66,18.3Z" transform="translate(-29.14 -1.38)"/><rect x="39.24" y="2.43" width="1" height="14.1"/><polygon points="59.15 33.8 59.15 26.69 68.42 26.69 68.42 25.83 59.15 25.83 59.15 19.37 69.01 19.37 69.01 18.51 58.16 18.51 58.16 34.65 69.12 34.65 69.12 33.8 59.15 33.8"/><polygon points="69.18 16.08 58.82 16.08 58.82 8.35 68.48 8.35 68.48 7.89 58.82 7.89 58.82 0.84 69.09 0.84 69.09 0.38 58.37 0.38 58.37 16.53 69.18 16.53 69.18 16.08"/><path d="M54.15,12.73l2,5.18h1.07L50.87,1.77H49.78L43.29,17.91h1.07l2-5.18Zm-3.82-10h0l3.46,9.14h-7.1Z" transform="translate(-29.14 -1.38)"/><path d="M79,35.56c-4.23,0-6.7-3.46-6.7-7.6s2.47-7.6,6.7-7.6a5.29,5.29,0,0,1,5.49,4.35h1A6.16,6.16,0,0,0,79,19.5c-4.84,0-7.69,3.74-7.69,8.46s2.85,8.46,7.69,8.46c3.55,0,6.4-2.8,6.76-6.67h-1A6.06,6.06,0,0,1,79,35.56Z" transform="translate(-29.14 -1.38)"/><path d="M51.89,19.5c-4.82,0-7.44,3.87-7.44,8.46s2.62,8.46,7.44,8.46,7.44-3.87,7.44-8.46S56.7,19.5,51.89,19.5Zm0,16.47c-4.37,0-6.92-3.37-7-8s2.62-8,7-8,6.92,3.37,7,8S56.23,36,51.89,36Z" transform="translate(-29.14 -1.38)"/><polygon points="43.42 18.51 42.74 18.51 31.55 28.32 31.55 18.51 31.09 18.51 31.09 34.65 31.55 34.65 31.55 28.93 35.26 25.65 43.26 34.65 43.87 34.65 35.62 25.38 43.42 18.51"/><rect x="49.69" y="13" width="0.44" height="3.47"/><rect x="22.41" y="18.58" width="0.44" height="3.47"/></svg>